HIERARCHY
ROOT hip
{
	OFFSET 0.000000 0.000000 0.000000 
	CHANNELS 6 Xposition Yposition Zposition Xrotation Zrotation Yrotation
	JOINT abdomen
	{
		OFFSET 0.000000 3.402643 0.000000 
		CHANNELS 3 Xrotation Zrotation Yrotation
		JOINT chest
		{
			OFFSET 0.000000 8.438565 -0.680529 
			CHANNELS 3 Xrotation Zrotation Yrotation
			JOINT neck
			{
				OFFSET 0.000000 10.207942 -0.272212 
				CHANNELS 3 Xrotation Zrotation Yrotation
				JOINT head
				{
					OFFSET 0.000000 3.130431 0.000000 
					CHANNELS 3 Xrotation Zrotation Yrotation
					End Site
					{
						OFFSET 0.000000 3.130435 0.000000 
					}
				}
			}
			JOINT lCollar
			{
				OFFSET 3.470700 6.669187 -0.816635 
				CHANNELS 3 Yrotation Zrotation Xrotation
				JOINT lShldr
				{
					OFFSET 3.198488 0.000000 0.000000 
					CHANNELS 3 Zrotation Yrotation Xrotation
					JOINT lForeArm
					{
						OFFSET 10.139888 0.000000 0.000000 
						CHANNELS 3 Yrotation Zrotation Xrotation
						JOINT lHand
						{
							OFFSET 8.370511 0.000000 0.000000 
							CHANNELS 3 Zrotation Yrotation Xrotation
							End Site
							{
								OFFSET 4.083176 0.000000 0.000000 
							}
						}
					}
				}
			}
			JOINT rCollar
			{
				OFFSET -3.470700 6.669187 -0.816635 
				CHANNELS 3 Yrotation Zrotation Xrotation
				JOINT rShldr
				{
					OFFSET -3.198488 0.000000 0.000000 
					CHANNELS 3 Zrotation Yrotation Xrotation
					JOINT rForeArm
					{
						OFFSET -10.139888 0.000000 0.000000 
						CHANNELS 3 Yrotation Zrotation Xrotation
						JOINT rHand
						{
							OFFSET -8.370511 0.000000 0.000000 
							CHANNELS 3 Zrotation Yrotation Xrotation
							End Site
							{
								OFFSET -4.083176 0.000000 0.000000 
							}
						}
					}
				}
			}
		}
	}
	JOINT lThigh
	{
		OFFSET 5.308129 -1.633274 1.361059 
		CHANNELS 3 Xrotation Zrotation Yrotation
		JOINT lShin
		{
			OFFSET -2.041588 -20.007561 0.000000 
			CHANNELS 3 Xrotation Zrotation Yrotation
			JOINT lFoot
			{
				OFFSET 0.000000 -19.190928 -1.224953 
				CHANNELS 3 Xrotation Yrotation Zrotation
				End Site
				{
					OFFSET 0.000000 -2.449906 4.627600 
				}
			}
		}
	}
	JOINT rThigh
	{
		OFFSET -5.308129 -1.633274 1.361059 
		CHANNELS 3 Xrotation Zrotation Yrotation
		JOINT rShin
		{
			OFFSET 2.041588 -20.007561 0.000000 
			CHANNELS 3 Xrotation Zrotation Yrotation
			JOINT rFoot
			{
				OFFSET 0.000000 -19.190928 -1.224953 
				CHANNELS 3 Xrotation Yrotation Zrotation
				End Site
				{
					OFFSET 0.000000 -2.449906 4.627600 
				}
			}
		}
	}
}
MOTION
Frames: 20
Frame Time: 0.011111
-0.851065 52.253628 -5.289233 1.492769 0.416355 -2.480221 23.750744 1.693706 1.481894 -20.343271 -0.338725 0.084725 -12.520077 -8.623609 -6.140069 30.231701 19.349733 -10.050788 2.424333 -4.683778 1.783845 -69.121292 -26.185041 3.631240 -48.672169 7.379844 7.618919 8.524705 12.647240 -48.040417 -2.738486 -1.140572 2.095526 64.717583 25.309584 22.630474 59.263515 -9.214653 12.081569 -8.534408 -12.637552 32.747902 3.046146 13.559529 -6.025148 15.311789 -5.898486 -2.873332 -27.167156 13.662766 3.876107 -3.172689 -9.959063 17.907249 23.047771 5.650380 3.922508 -27.484953 -9.592587 -2.382546 
-0.869710 52.246410 -5.312690 1.492645 0.419153 -2.587606 23.967516 1.971154 1.390543 -20.450678 -0.349303 0.036736 -12.115778 -8.821507 -6.402593 30.529989 19.467258 -10.492300 2.424333 -4.683778 1.783845 -69.249435 -26.153679 4.015511 -48.797531 7.414895 7.673986 8.524705 12.647240 -47.718151 -2.738486 -1.140572 2.095526 64.439880 25.352985 22.967659 60.029831 -9.279858 12.423003 -8.534408 -12.637552 33.011578 2.929275 13.558471 -6.000757 15.542022 -5.897191 -2.904120 -27.355476 13.610429 3.939461 -3.353899 -9.884156 17.930483 23.271002 5.640300 3.949582 -27.403278 -9.593781 -2.363876 
-0.895573 52.237991 -5.346972 1.492525 0.568895 -2.710696 24.258858 2.022892 1.207399 -20.509274 -0.350289 -0.011725 -11.943153 -8.923251 -6.629179 30.939308 19.524220 -10.879662 2.424333 -4.683778 1.783845 -69.251198 -26.241558 4.777225 -48.911331 7.438569 7.714341 8.524705 12.647240 -47.073620 -2.738486 -1.140572 2.095526 64.235443 25.590555 23.174858 60.712643 -9.334316 12.737971 -8.534408 -12.637552 33.177593 2.871129 13.416854 -5.864652 15.687748 -5.896809 -2.936779 -27.394598 13.520221 3.905931 -3.660325 -9.968544 18.009571 23.636703 5.619774 3.998489 -27.430573 -9.501855 -2.324952 
-0.925645 52.225361 -5.376745 1.492280 0.721179 -2.931410 24.560690 1.977833 1.159602 -20.450832 -0.262598 -0.023597 -12.004210 -8.992867 -6.823055 31.541578 19.463423 -11.243770 2.424333 -4.683778 1.783845 -69.225990 -26.466610 5.821345 -48.891014 7.435701 7.703897 8.524705 12.647240 -46.175186 -2.738486 -1.140572 2.095526 63.982643 25.906961 23.302118 61.457584 -9.376469 13.065286 -8.534408 -12.637552 33.460800 2.851487 13.259754 -5.563939 15.840865 -5.905995 -2.952031 -27.332560 13.567077 3.904395 -3.989206 -10.032125 18.139811 23.989826 5.610263 4.037945 -27.422464 -9.423021 -2.294045 
-0.951208 52.214531 -5.392985 1.472506 0.911939 -3.170941 24.793980 1.923597 1.108843 -20.304434 -0.213886 -0.034880 -11.994431 -8.997636 -7.043163 31.960159 19.294764 -11.689367 2.424333 -4.683778 1.783845 -69.250313 -26.690863 6.460986 -49.046432 7.471239 7.772611 8.524705 12.647240 -46.165417 -2.738486 -1.140572 2.095526 63.769554 26.222725 23.474213 62.268013 -9.416892 13.437930 -8.534408 -12.637552 33.626808 2.900142 13.063305 -5.212015 15.926608 -5.898528 -2.967868 -27.239454 13.533776 3.868258 -4.320418 -10.128825 18.309223 24.393782 5.591364 4.109066 -27.467730 -9.333680 -2.270525 
-0.974665 52.200699 -5.393887 1.433243 1.101129 -3.401215 25.036980 1.931660 1.010946 -20.236094 -0.204554 -0.064586 -11.859665 -9.067102 -7.240435 32.311821 19.193758 -12.053818 2.424333 -4.683778 1.783845 -69.312912 -26.846130 6.609021 -49.286915 7.534015 7.866649 8.524705 12.647240 -47.102921 -2.738486 -1.140572 2.095526 63.544228 26.421436 23.803331 63.120361 -9.444443 13.827552 -8.534408 -12.637552 33.783062 2.978222 12.866974 -4.809674 16.044531 -5.888951 -2.977298 -27.146631 13.431207 3.782167 -4.566298 -10.249287 18.379135 24.788261 5.570633 4.160295 -27.533737 -9.094267 -2.192801 
-1.001730 52.184761 -5.416141 1.423247 1.291618 -3.621327 25.318100 1.942606 0.858859 -20.304541 -0.156490 -0.104245 -11.676765 -9.156219 -7.382085 32.674221 19.220840 -12.294559 2.424333 -4.683778 1.783845 -69.345200 -26.972582 6.951585 -49.504997 7.580909 7.947131 8.524705 12.647240 -47.718151 -2.738486 -1.140572 2.095526 63.246624 26.484432 24.261168 64.036591 -9.459598 14.246836 -8.534408 -12.637552 34.144394 2.958286 12.680912 -4.559003 16.173326 -5.876741 -2.997946 -27.128292 13.397053 3.766974 -4.870793 -10.358875 18.499598 25.191916 5.551662 4.211787 -27.617195 -8.858243 -2.119051 
-1.026992 52.177536 -5.466663 1.461923 1.338366 -3.824457 25.650608 2.110160 0.788446 -20.372950 -0.128048 -0.143658 -11.657832 -9.181092 -7.519756 33.144772 19.124453 -12.547219 2.424333 -4.683778 1.783845 -69.388214 -27.137930 7.552754 -49.787323 7.652948 8.072372 8.524705 12.647240 -47.698624 -2.738486 -1.140572 2.095526 62.970131 26.615431 24.592779 64.931831 -9.462002 14.667240 -8.534408 -12.637552 34.388527 2.810902 12.657408 -4.259148 16.317287 -5.881784 -3.001137 -27.046473 13.359070 3.740871 -5.282104 -10.282420 18.750921 25.614803 5.532647 4.274644 -27.721563 -8.843402 -2.141171 
-1.053756 52.171825 -5.523200 1.568804 1.458791 -4.033758 25.913692 2.186998 0.709452 -20.382769 -0.099330 -0.173476 -11.688974 -9.246630 -7.671010 33.602463 19.147879 -12.810765 2.424333 -4.683778 1.783845 -69.431046 -27.293512 8.178777 -50.224819 7.747930 8.242423 8.524705 12.647240 -47.640026 -2.738486 -1.140572 2.095526 62.705795 26.873167 24.846653 65.793877 -9.448139 15.067239 -8.534408 -12.637552 34.583836 2.557766 12.570563 -4.087827 16.507711 -5.867701 -3.055964 -27.124674 13.358661 3.740771 -5.825449 -10.278410 18.983829 26.046675 5.521401 4.311637 -27.754303 -8.793831 -2.134047 
-1.073003 52.159798 -5.566806 1.656219 1.676173 -4.240329 26.204025 2.178066 0.559630 -20.382837 -0.061190 -0.223027 -11.581610 -9.258078 -7.815942 33.711922 19.111246 -13.081080 2.424333 -4.683778 1.783845 -69.464584 -27.478546 8.789501 -50.590424 7.829433 8.391289 8.524705 12.647240 -47.659561 -2.738486 -1.140572 2.095526 62.391369 27.121788 25.260271 66.666061 -9.420978 15.480398 -8.534408 -12.637552 34.808453 2.324263 12.362957 -3.873820 16.786543 -5.869226 -3.090539 -27.127371 13.294885 3.730981 -6.346002 -10.418429 19.137569 26.499817 5.492758 4.394319 -27.805288 -8.637701 -2.076267 
-1.088942 52.142056 -5.617629 1.743615 1.903949 -4.445945 26.503670 2.229463 0.369517 -20.373232 0.025816 -0.273486 -11.476005 -9.318781 -7.909561 33.726482 19.020834 -13.309443 2.424333 -4.683778 1.783845 -69.537582 -27.653173 9.513955 -51.009007 7.921607 8.561837 8.524705 12.647240 -47.503307 -2.738486 -1.140572 2.095526 61.967854 27.410915 25.840330 67.546043 -9.374743 15.898002 -8.534408 -12.637552 35.091656 2.060581 12.157387 -3.414255 17.127420 -5.869061 -3.131142 -26.991482 13.085868 3.601152 -6.881010 -10.524174 19.302938 26.991476 5.473654 4.453282 -27.870029 -8.538014 -2.058290 
-1.110594 52.125217 -5.684091 1.879477 2.049751 -4.690985 26.795670 2.302090 0.281302 -20.353697 0.025197 -0.312534 -11.514372 -9.308724 -8.024639 33.902939 18.980801 -13.524011 2.424333 -4.683778 1.783845 -69.521606 -27.839012 10.445708 -51.659580 8.062981 8.823448 8.524705 12.647240 -47.073620 -2.738486 -1.140572 2.095526 61.686237 27.844492 26.132544 68.298454 -9.325182 16.264093 -8.534408 -12.637552 35.355328 1.699704 12.049259 -2.910064 17.474356 -5.845080 -3.198649 -26.923485 12.892603 3.492776 -7.514127 -10.523187 19.527857 27.514154 5.443716 4.522899 -27.905586 -8.516434 -2.058763 
-1.132247 52.103859 -5.762281 1.966445 2.174009 -4.967174 27.244835 2.386952 0.243525 -20.412287 0.024502 -0.332087 -11.492913 -9.262171 -8.158301 33.906605 18.930256 -13.796952 2.424333 -4.683778 1.783845 -69.486420 -28.054464 11.431003 -52.245621 8.174541 9.062819 8.524705 12.647240 -46.780647 -2.738486 -1.140572 2.095526 61.443657 28.238424 26.289499 69.058929 -9.260530 16.633368 -8.534408 -12.637552 35.492050 1.367355 11.959264 -2.501974 17.867237 -5.839062 -3.233083 -26.925367 12.753932 3.445432 -8.113479 -10.496884 19.810154 28.084068 5.424499 4.598298 -28.031130 -8.411937 -2.055755 
-1.140968 52.083717 -5.822727 1.994972 2.441851 -5.289027 27.642994 2.374204 0.136276 -20.461130 0.033393 -0.361595 -11.347356 -9.290021 -8.226598 33.831017 18.947424 -13.925386 2.424333 -4.683778 1.783845 -69.440918 -28.250546 12.406263 -52.656498 8.260105 9.238466 8.524705 12.647240 -46.975964 -2.738486 -1.140572 2.095526 61.168682 28.496006 26.543028 69.911156 -9.170356 17.043800 -8.534408 -12.637552 35.443218 1.132554 11.673278 -2.136324 18.313902 -5.818851 -3.299990 -26.996103 12.652722 3.431282 -8.704551 -10.659842 20.118185 28.696423 5.389981 4.654941 -28.202085 -8.120696 -1.971244 
-1.143674 52.053940 -5.883474 2.052571 2.892391 -5.710260 27.960199 2.137594 -0.020622 -20.451548 0.130897 -0.373296 -11.260149 -9.308582 -8.245792 33.749775 18.878555 -13.993318 2.424333 -4.683778 1.783845 -69.394386 -28.397806 13.596369 -53.139633 8.348451 9.438164 8.524705 12.647240 -47.200573 -2.738486 -1.140572 2.095526 60.814228 28.783861 26.822979 70.742378 -9.072655 17.463657 -8.534408 -12.637552 35.501812 0.937809 11.178219 -1.690733 18.756149 -5.810205 -3.357826 -27.137606 12.499842 3.425356 -9.490977 -11.014932 20.426348 29.347755 5.345492 4.760910 -28.279137 -7.791564 -1.840333 
-1.160516 52.018757 -5.966776 2.158009 3.127114 -6.205060 28.387873 2.099496 -0.068271 -20.520208 0.286460 -0.386511 -11.417007 -9.335726 -8.244503 33.867363 18.667856 -14.071160 2.424333 -4.683778 1.783845 -69.398674 -28.602854 14.938894 -53.740849 8.461047 9.691530 8.524705 12.647240 -47.122452 -2.738486 -1.140572 2.095526 60.361382 29.170528 27.099348 71.546371 -8.955621 17.861418 -8.534408 -12.637552 35.716656 0.605915 10.951428 -1.190760 19.195261 -5.806771 -3.435872 -27.218790 12.502609 3.463155 -10.317740 -11.071837 20.787840 30.037542 5.307101 4.851273 -28.276215 -7.493940 -1.701415 
-1.190589 51.987183 -6.056996 2.282498 3.247301 -6.662995 28.836834 2.173010 -0.076736 -20.608273 0.373513 -0.398701 -11.583640 -9.362350 -8.231668 33.951015 18.606655 -14.085496 2.424333 -4.683778 1.783845 -69.255638 -28.878641 16.477997 -54.351734 8.563342 9.949016 8.524705 12.647240 -46.956429 -2.738486 -1.140572 2.095526 60.028881 29.604401 27.267849 72.276741 -8.839981 18.231688 -8.534408 -12.637552 35.814316 0.224762 10.909162 -0.678777 19.557095 -5.790594 -3.456319 -27.204657 12.546668 3.455911 -11.148386 -10.945446 21.169832 30.805645 5.267611 4.958486 -28.371403 -7.324797 -1.660251 
-1.221263 51.950790 -6.133682 2.358808 3.546831 -7.066867 29.242929 2.046398 -0.209664 -20.549915 0.490658 -0.420376 -11.593464 -9.365624 -8.239356 33.734989 18.645521 -14.116753 2.424333 -4.683778 1.783845 -69.054665 -29.233479 18.127733 -54.911213 8.653127 10.177494 8.524705 12.647240 -47.063854 -2.738486 -1.140572 2.095526 59.778145 30.164167 27.341511 72.866165 -8.731661 18.536974 -8.534408 -12.637552 35.550640 -0.067990 10.651535 -0.257356 19.948349 -5.771355 -3.517742 -27.269335 12.481202 3.466620 -12.025599 -11.023078 21.474009 31.624353 5.218596 5.047806 -28.429287 -7.053503 -1.532393 
-1.222466 51.917110 -6.220292 2.504298 4.305120 -7.445724 29.536798 1.511675 -0.556709 -20.559959 0.626633 -0.452724 -11.494565 -9.327338 -8.283095 33.329628 18.635464 -14.236588 2.424333 -4.683778 1.783845 -68.862961 -29.558853 19.831594 -55.566803 8.755338 10.462749 8.524705 12.647240 -47.298229 -2.738486 -1.140572 2.095526 59.506924 30.704594 27.409637 73.412674 -8.622660 18.808538 -8.534408 -12.637552 35.257671 -0.370380 9.864079 0.172498 20.316399 -5.761035 -3.569023 -27.312647 12.447680 3.471599 -13.215332 -11.676918 21.607845 32.480469 5.170336 5.169513 -28.298668 -6.552805 -1.286505 
-1.236300 51.882824 -6.315022 2.619220 4.762932 -7.924998 29.933147 1.276840 -0.735827 -20.716528 0.771356 -0.477543 -11.429151 -9.411708 -8.267570 33.199516 18.601925 -14.230955 2.424333 -4.683778 1.783845 -68.718582 -29.776018 21.566027 -56.214138 8.855273 10.747163 8.524705 12.647240 -47.591198 -2.738486 -1.140572 2.095526 59.144657 31.197203 27.601528 73.937469 -8.512178 19.077663 -8.534408 -12.637552 35.257671 -0.683716 9.457489 0.705387 20.680754 -5.764796 -3.602216 -27.281107 12.470888 3.483812 -14.288845 -11.930878 21.819164 33.317455 5.116817 5.257462 -28.085770 -6.261033 -1.102109 
